# xmcd CD database file
#
# Track frame offsets:
#	150
#	15142
#	36352
#	49197
#	62435
#	95967
#	113760
#	126442
#	141687
#	157435
#	172880
#	186800
#	195860
#	214090
#	236867
#
# Disc length: 3405 seconds
#
# Revision: 2
# Processed by: cddbd v1.5.2PL0 Copyright (c) Steve Scherf et al.
# Submitted via: jetAudio 7
#
DISCID=db0d4b0f
DTITLE=Cantorias e Cantadores - Cantorias e Cantadores 2
DYEAR=1900
DGENRE=Alternative
TTITLE0=O Cio da Terra - Pena Branca e Xavantinho
TTITLE1=Canto de Guerreiro Mongoio - Elomar
TTITLE2=Milonga de Sete Cidades - A Estetica do frio - Vitor Ramil
TTITLE3=Gente que vem de Lisboa - Peixinho do Mar - Pena Branca e Xavan
TTITLE3=tinho
TTITLE4=Suite da Nau Catarineta - Teca Calazans
TTITLE5=Noite de Sao Joao - Vitor Ramil
TTITLE6=Violeiro - Elomar
TTITLE7=Vaca Estrela e Boi Fube - Pena Branca e Xavantinho
TTITLE8=Causo Farrapo - Vitor Ramil
TTITLE9=Seresta Sertaneza - Elomar
TTITLE10=Moreninha - Teca Calazans
TTITLE11=Canto de um Povo de um Lugar - Pena Branca e avantinho
TTITLE12=Gauderio - Vitor Ramil
TTITLE13=Cantiga de Boi Incantado - Elomar
TTITLE14=Estrada do Sertão - Teca Calazans
EXTD=
EXTT0=
EXTT1=
EXTT2=
EXTT3=
EXTT4=
EXTT5=
EXTT6=
EXTT7=
EXTT8=
EXTT9=
EXTT10=
EXTT11=
EXTT12=
EXTT13=
EXTT14=
PLAYORDER=
